<?xml version="1.0" standalone="no"?>
<!DOCTYPE svg PUBLIC "-//W3C//DTD SVG 20010904//EN"
 "http://www.w3.org/TR/2001/REC-SVG-20010904/DTD/svg10.dtd">
<svg version="1.0" xmlns="http://www.w3.org/2000/svg"
 width="32.000000pt" height="32.000000pt" viewBox="0 0 32.000000 32.000000"
 preserveAspectRatio="xMidYMid meet">

<g transform="translate(0.000000,32.000000) scale(0.100000,-0.100000)"
fill="#000000" stroke="none">
<path d="M95 306 c-101 -44 -125 -178 -46 -257 65 -65 157 -65 222 0 124 124
-15 327 -176 257z m112 -49 c10 -9 13 -22 9 -34 -7 -17 -8 -17 -17 0 -7 12
-22 17 -50 17 -38 0 -40 -2 -37 -27 2 -19 10 -29 28 -33 l25 -6 -25 -14 c-13
-7 -32 -22 -42 -34 -17 -20 -17 -19 -18 60 0 44 3 84 8 88 12 13 102 0 119
-17z m17 -103 c25 -24 20 -69 -10 -93 -35 -27 -107 -30 -102 -4 2 13 15 19 45
21 49 4 66 31 38 62 -13 14 -13 19 -3 23 7 3 14 6 15 6 1 1 9 -6 17 -15z"/>
</g>
</svg>
